<svg width="1392" height="429" viewBox="0 0 1392 429" fill="none" xmlns="http://www.w3.org/2000/svg">
<path fill-rule="evenodd" clip-rule="evenodd" d="M124 24C68.7715 24 24 68.7715 24 124V388.5C24 397.337 31.1634 404.5 40 404.5H231C239.837 404.5 247 397.337 247 388.5V215.5H136.916V245.5H135.916V214.5H136.915H136.916H247V40C247 31.1634 239.837 24 231 24H124ZM135.916 94.5L135.916 182.5H136.916V94.5H135.916Z" fill="#EFEFEF"/>
<path fill-rule="evenodd" clip-rule="evenodd" d="M348 24C292.772 24 248 68.7715 248 124V388.5C248 397.337 255.163 404.5 264 404.5H455C463.837 404.5 471 397.337 471 388.5V124C471 68.7715 426.228 24 371 24H348ZM359.75 94.5V182.5H360.75V94.5H359.75ZM359.75 278.5L359.75 402.5H360.75L360.75 278.5H359.75Z" fill="#EFEFEF"/>
<path d="M473 119C473 66.533 515.533 24 568 24H679C687.837 24 695 31.1634 695 40V198C695 206.837 687.837 214 679 214H568C515.533 214 473 171.467 473 119V119Z" fill="#EFEFEF"/>
<path d="M695 309.878C695 362.136 652.636 404.5 600.378 404.5L488 404.5C479.163 404.5 472 397.337 472 388.5L472 231.257C472 222.42 479.163 215.257 488 215.257L600.378 215.257C652.636 215.257 695 257.62 695 309.878V309.878Z" fill="#EFEFEF"/>
<path fill-rule="evenodd" clip-rule="evenodd" d="M936 24C927.163 24 920 31.1634 920 40V388.5C920 397.337 927.163 404.5 936 404.5H1128C1136.84 404.5 1144 397.337 1144 388.5V215.5H1032.75V214.5H1144V124C1144 68.7715 1099.23 24 1044 24H936ZM1031.75 94.5L1031.75 182.5H1032.75L1032.75 94.5H1031.75ZM1031.75 214.5V245.5H1032.75V214.5H1031.75Z" fill="#EFEFEF"/>
<path fill-rule="evenodd" clip-rule="evenodd" d="M712 24C703.163 24 696 31.1634 696 40L696 213L696 304C696 359.228 740.772 404 796 404H819C874.228 404 919 359.228 919 304L919 229C919 220.163 911.837 213 903 213H819.446V212H903C911.837 212 919 204.837 919 196V83C919 74.1634 911.837 67 903 67H835.446C826.61 67 819.446 59.8366 819.446 51V40C819.446 31.1634 812.283 24 803.446 24H712Z" fill="#EFEFEF"/>
<path fill-rule="evenodd" clip-rule="evenodd" d="M1161.06 24C1152.23 24 1145.06 31.1634 1145.06 40V388C1145.06 396.837 1152.23 404 1161.06 404H1191.06H1241.06H1352.98C1365.15 404 1372.87 390.941 1366.99 380.278L1288.53 237.903C1288.8 237.847 1289.07 237.79 1289.34 237.732L1214 93.5L1214.89 93.037L1290.35 237.507C1334.85 227.379 1368.06 187.568 1368.06 140V124C1368.06 68.7715 1323.29 24 1268.06 24H1252.06C1249.41 24 1246.79 24.1031 1244.19 24.3054C1243.18 24.105 1242.13 24 1241.06 24H1161.06Z" fill="#EFEFEF"/>
</svg>
