<svg width="343" height="333" viewBox="0 0 343 333" fill="none" xmlns="http://www.w3.org/2000/svg">
<path fill-rule="evenodd" clip-rule="evenodd" d="M40 0C17.9086 0 0 17.9086 0 40V150C0 158.837 7.16344 166 16 166H97.6667C106.503 166 113.667 158.837 113.667 150V83.8272H57.8001V96.6333H56.8001V83.109H57.5547V82.8272H113.667V16C113.667 7.16344 106.503 0 97.6667 0H40ZM56.8 30.7569L56.8001 69.1485H57.8001L57.8 30.7569H56.8Z" fill="#EFEFEF"/>
<path fill-rule="evenodd" clip-rule="evenodd" d="M154.667 0C132.575 0 114.667 17.9086 114.667 40V150C114.667 158.837 121.83 166 130.667 166H212.333C221.17 166 228.333 158.837 228.333 150V40C228.333 17.9086 210.425 0 188.333 0H154.667ZM171.382 30.7569L171.382 69.1485H172.382L172.382 30.7569H171.382ZM171.382 111.03L171.382 165.127H172.382L172.382 111.03H171.382Z" fill="#EFEFEF"/>
<path d="M229.843 41.25C229.843 18.4683 248.312 0 271.093 0H327.392C336.012 0 343 6.98788 343 15.6079V66.8921C343 75.5121 336.012 82.5 327.392 82.5H271.093C248.312 82.5 229.843 64.0317 229.843 41.25V41.25Z" fill="#EFEFEF"/>
<path d="M343 124.72C343 147.518 324.518 166 301.72 166L245.011 166C236.353 166 229.333 158.981 229.333 150.322L229.333 99.1173C229.333 90.4585 236.353 83.4392 245.012 83.4392L301.72 83.4392C324.518 83.4392 343 101.921 343 124.72V124.72Z" fill="#EFEFEF"/>
<path fill-rule="evenodd" clip-rule="evenodd" d="M16 167C7.16344 167 0 174.163 0 183L-8.30516e-06 250L-4.00249e-06 293C0 315.091 17.9086 333 40 333H73.6667C95.7581 333 113.667 315.091 113.667 293V266C113.667 257.164 106.503 250 97.6667 250H65.6146V249.105C65.8904 249.119 66.1681 249.127 66.4475 249.127H97.0027C105.839 249.127 113.003 241.963 113.003 233.127V201.785C113.003 192.948 105.839 185.785 97.0027 185.785H83.2386V185.784H78.5551C72.7149 185.784 67.6055 182.655 64.8119 177.982C62.707 171.604 56.6984 167 49.6146 167H16ZM65.6146 185.792H65.9402C65.8314 185.796 65.7229 185.8 65.6146 185.806V185.792Z" fill="#EFEFEF"/>
<path fill-rule="evenodd" clip-rule="evenodd" d="M130.667 167C121.83 167 114.667 174.163 114.667 183V317C114.667 325.837 121.83 333 130.667 333H212.333C221.17 333 228.333 325.837 228.333 317V250.831L172.127 250.831V263.637H171.127V250.112H171.882V249.831L228.333 249.831V207C228.333 184.909 210.425 167 188.333 167H130.667ZM171.127 197.76L171.127 236.152H172.127L172.127 197.76H171.127Z" fill="#EFEFEF"/>
<path fill-rule="evenodd" clip-rule="evenodd" d="M245.333 167C236.497 167 229.333 174.163 229.333 183V317C229.333 325.837 236.497 333 245.334 333H270.422C270.553 333 270.683 332.998 270.813 332.995H319.807C332.466 332.995 340.112 318.99 333.265 308.342L302.731 260.855C302.776 260.849 302.821 260.842 302.866 260.836L264.271 197.514L265.125 196.993L303.865 260.554L303.591 260.721C325.95 257.016 343 237.589 343 214.179C343 188.123 321.877 167 295.821 167H280.08C278.007 167 275.965 167.134 273.962 167.393C272.823 167.136 271.638 167 270.422 167H245.333Z" fill="#EFEFEF"/>
</svg>
