<svg width="1392" height="322" viewBox="0 0 1392 322" fill="none" xmlns="http://www.w3.org/2000/svg">
<rect width="231.167" height="322" rx="16" fill="#EFEFEF"/>
<path d="M232.167 100C232.167 44.7715 276.939 0 332.167 0H363.334C418.562 0 463.334 44.7715 463.334 100V306C463.334 314.837 456.17 322 447.334 322H248.167C239.33 322 232.167 314.837 232.167 306V100Z" fill="#EFEFEF"/>
<path d="M465.021 80.3937C465.021 35.9935 501.014 0 545.414 0H678.979C687.815 0 694.979 7.16344 694.979 16V144.787C694.979 153.624 687.815 160.787 678.979 160.787H545.414C501.014 160.787 465.021 124.794 465.021 80.3937V80.3937Z" fill="#EFEFEF"/>
<path d="M695.5 241.926C695.5 286.15 659.65 322 615.426 322L480.333 322C471.497 322 464.333 314.837 464.333 306L464.333 177.852C464.333 169.015 471.497 161.852 480.333 161.852L615.426 161.852C659.65 161.852 695.5 197.702 695.5 241.926V241.926Z" fill="#EFEFEF"/>
<rect x="928.667" width="231.167" height="322" rx="16" fill="#EFEFEF"/>
<line x1="1048.5" y1="71" x2="1048.5" y2="159" stroke="black"/>
<line x1="1048.5" y1="191" x2="1048.5" y2="222" stroke="black"/>
<line x1="1049" y1="191.5" x2="1160" y2="191.5" stroke="black"/>
<line x1="348.5" y1="70" x2="348.5" y2="158" stroke="black"/>
<line x1="348.5" y1="223" x2="348.5" y2="321" stroke="black"/>
<path d="M696 16C696 7.16345 703.163 0 712 0H804C812.837 0 820 7.16344 820 16V201H696V16Z" fill="#EFEFEF"/>
<rect x="800" y="158" width="41" height="1" rx="0.5" fill="#EFEFEF"/>
<rect x="820" y="158" width="41" height="1" rx="0.5" fill="#1E1E1E"/>
<rect x="796" y="43" width="131" height="115" rx="16" fill="#EFEFEF"/>
<rect x="1161" y="1" width="131" height="321" rx="16" fill="#EFEFEF"/>
<rect x="1176" y="1" width="216" height="216" rx="100" fill="#EFEFEF"/>
<path d="M796 322C740.772 322 696 277.228 696 222L696 159L911 159C919.837 159 927 166.163 927 175L927 222C927 277.228 882.228 322 827 322L796 322Z" fill="#EFEFEF"/>
<path d="M1289 136L1381.37 298.078C1387.45 308.744 1379.74 322 1367.47 322H1199C1190.16 322 1183 314.837 1183 306V152C1183 143.163 1190.16 136 1199 136H1289Z" fill="#EFEFEF"/>
<line x1="1251.43" y1="70.7501" x2="1341.43" y2="226.75" stroke="#1E1E1E"/>
<path fill-rule="evenodd" clip-rule="evenodd" d="M119 159L119 71H120L120 159H119ZM119 222.5V191.5H120L231 191.5V192.5L120 192.5L120 222.5H119Z" fill="black"/>
<path fill-rule="evenodd" clip-rule="evenodd" d="M820 27V43H836C827.163 43 820 35.8366 820 27Z" fill="#EFEFEF"/>
</svg>
